<?xml version="1.0" standalone="no"?>
<!DOCTYPE svg PUBLIC "-//W3C//DTD SVG 20010904//EN"
 "http://www.w3.org/TR/2001/REC-SVG-20010904/DTD/svg10.dtd">
<svg version="1.0" xmlns="http://www.w3.org/2000/svg"
 width="274.000000pt" height="274.000000pt" viewBox="0 0 274.000000 274.000000"
 preserveAspectRatio="xMidYMid meet">
<metadata>
Created by potrace 1.14, written by Peter Selinger 2001-2017
</metadata>
<g transform="translate(0.000000,274.000000) scale(0.100000,-0.100000)"
fill="#000000" stroke="none">
<path d="M123 1957 c-46 -17 -82 -52 -104 -100 -17 -39 -19 -71 -19 -481 0
-309 3 -450 12 -478 14 -47 84 -113 129 -122 17 -3 575 -6 1238 -6 l1207 0 50
25 c36 18 57 37 75 67 l24 43 3 450 c3 499 3 502 -61 562 -17 17 -47 35 -66
42 -49 16 -2443 14 -2488 -2z"/>
</g>
</svg>
